<mxfile host="Electron" modified="2023-11-23T19:57:07.137Z" agent="Mozilla/5.0 (Macintosh; Intel Mac OS X 10_15_7) AppleWebKit/537.36 (KHTML, like Gecko) draw.io/22.1.2 Chrome/114.0.5735.289 Electron/25.9.4 Safari/537.36" etag="RZrGVaOKjlOSALDncwBx" version="22.1.2" type="device">
  <diagram name="Page-1" id="ssLpnz4dRdgNs2Zpdkk9">
    <mxGraphModel dx="306" dy="83" grid="1" gridSize="10" guides="1" tooltips="1" connect="1" arrows="1" fold="1" page="1" pageScale="1" pageWidth="1100" pageHeight="850" math="0" shadow="0">
      <root>
        <mxCell id="0" />
        <mxCell id="1" parent="0" />
        <mxCell id="HPQqTix-k1KZv60HH8lt-1" value="" style="group" parent="1" vertex="1" connectable="0">
          <mxGeometry x="1613" y="1615" width="45" height="45" as="geometry" />
        </mxCell>
        <mxCell id="HPQqTix-k1KZv60HH8lt-2" value="" style="group" parent="HPQqTix-k1KZv60HH8lt-1" vertex="1" connectable="0">
          <mxGeometry width="45" height="45" as="geometry" />
        </mxCell>
        <mxCell id="HPQqTix-k1KZv60HH8lt-3" value="" style="ellipse;whiteSpace=wrap;html=1;aspect=fixed;" parent="HPQqTix-k1KZv60HH8lt-2" vertex="1">
          <mxGeometry width="45" height="45" as="geometry" />
        </mxCell>
        <mxCell id="HPQqTix-k1KZv60HH8lt-4" value="" style="ellipse;whiteSpace=wrap;html=1;aspect=fixed;fillColor=#000000;" parent="HPQqTix-k1KZv60HH8lt-2" vertex="1">
          <mxGeometry x="7.5" y="7.5" width="30" height="30" as="geometry" />
        </mxCell>
        <mxCell id="d0ObZKYIOj4vL6NHh_b1-2" style="edgeStyle=orthogonalEdgeStyle;rounded=0;orthogonalLoop=1;jettySize=auto;html=1;exitX=0.5;exitY=1;exitDx=0;exitDy=0;entryX=0.5;entryY=0;entryDx=0;entryDy=0;" edge="1" parent="1" source="HPQqTix-k1KZv60HH8lt-8" target="d0ObZKYIOj4vL6NHh_b1-1">
          <mxGeometry relative="1" as="geometry" />
        </mxCell>
        <mxCell id="d0ObZKYIOj4vL6NHh_b1-18" value="System admin adds flight details" style="edgeLabel;html=1;align=center;verticalAlign=middle;resizable=0;points=[];" vertex="1" connectable="0" parent="d0ObZKYIOj4vL6NHh_b1-2">
          <mxGeometry x="-0.29" y="-2" relative="1" as="geometry">
            <mxPoint y="1" as="offset" />
          </mxGeometry>
        </mxCell>
        <mxCell id="HPQqTix-k1KZv60HH8lt-8" value="" style="ellipse;whiteSpace=wrap;html=1;aspect=fixed;fillColor=#000000;" parent="1" vertex="1">
          <mxGeometry x="1620" y="890" width="30" height="30" as="geometry" />
        </mxCell>
        <mxCell id="XJ0hhTHGogcGhbCVhdeB-1" value="State Transition Diagram for Flight Object" style="text;html=1;strokeColor=#d6b656;fillColor=#fff2cc;align=center;verticalAlign=middle;whiteSpace=wrap;rounded=0;" parent="1" vertex="1">
          <mxGeometry x="1300" y="890" width="170" height="60" as="geometry" />
        </mxCell>
        <mxCell id="d0ObZKYIOj4vL6NHh_b1-4" style="edgeStyle=orthogonalEdgeStyle;rounded=0;orthogonalLoop=1;jettySize=auto;html=1;exitX=0.5;exitY=1;exitDx=0;exitDy=0;entryX=0.5;entryY=0;entryDx=0;entryDy=0;" edge="1" parent="1" source="d0ObZKYIOj4vL6NHh_b1-1" target="d0ObZKYIOj4vL6NHh_b1-3">
          <mxGeometry relative="1" as="geometry" />
        </mxCell>
        <mxCell id="d0ObZKYIOj4vL6NHh_b1-19" value="System admin assigns crew to flight" style="edgeLabel;html=1;align=center;verticalAlign=middle;resizable=0;points=[];" vertex="1" connectable="0" parent="d0ObZKYIOj4vL6NHh_b1-4">
          <mxGeometry x="-0.119" y="3" relative="1" as="geometry">
            <mxPoint as="offset" />
          </mxGeometry>
        </mxCell>
        <mxCell id="d0ObZKYIOj4vL6NHh_b1-1" value="Scheduled" style="rounded=1;whiteSpace=wrap;html=1;" vertex="1" parent="1">
          <mxGeometry x="1575" y="986" width="120" height="60" as="geometry" />
        </mxCell>
        <mxCell id="d0ObZKYIOj4vL6NHh_b1-6" style="edgeStyle=orthogonalEdgeStyle;rounded=0;orthogonalLoop=1;jettySize=auto;html=1;exitX=0.5;exitY=1;exitDx=0;exitDy=0;entryX=0.5;entryY=0;entryDx=0;entryDy=0;" edge="1" parent="1" source="d0ObZKYIOj4vL6NHh_b1-3" target="d0ObZKYIOj4vL6NHh_b1-5">
          <mxGeometry relative="1" as="geometry" />
        </mxCell>
        <mxCell id="d0ObZKYIOj4vL6NHh_b1-20" value="Flight goes live on website" style="edgeLabel;html=1;align=center;verticalAlign=middle;resizable=0;points=[];" vertex="1" connectable="0" parent="d0ObZKYIOj4vL6NHh_b1-6">
          <mxGeometry x="-0.0811" y="1" relative="1" as="geometry">
            <mxPoint as="offset" />
          </mxGeometry>
        </mxCell>
        <mxCell id="d0ObZKYIOj4vL6NHh_b1-3" value="Assigned Crew" style="rounded=1;whiteSpace=wrap;html=1;" vertex="1" parent="1">
          <mxGeometry x="1575" y="1118" width="120" height="60" as="geometry" />
        </mxCell>
        <mxCell id="d0ObZKYIOj4vL6NHh_b1-10" style="edgeStyle=orthogonalEdgeStyle;rounded=0;orthogonalLoop=1;jettySize=auto;html=1;exitX=0.5;exitY=1;exitDx=0;exitDy=0;entryX=0.5;entryY=0;entryDx=0;entryDy=0;" edge="1" parent="1" source="d0ObZKYIOj4vL6NHh_b1-5" target="d0ObZKYIOj4vL6NHh_b1-7">
          <mxGeometry relative="1" as="geometry" />
        </mxCell>
        <mxCell id="d0ObZKYIOj4vL6NHh_b1-22" value="Flight goes as planned" style="edgeLabel;html=1;align=center;verticalAlign=middle;resizable=0;points=[];" vertex="1" connectable="0" parent="d0ObZKYIOj4vL6NHh_b1-10">
          <mxGeometry x="-0.1286" y="3" relative="1" as="geometry">
            <mxPoint as="offset" />
          </mxGeometry>
        </mxCell>
        <mxCell id="d0ObZKYIOj4vL6NHh_b1-11" style="edgeStyle=orthogonalEdgeStyle;rounded=0;orthogonalLoop=1;jettySize=auto;html=1;exitX=1;exitY=0.5;exitDx=0;exitDy=0;entryX=0.5;entryY=0;entryDx=0;entryDy=0;" edge="1" parent="1" source="d0ObZKYIOj4vL6NHh_b1-5" target="d0ObZKYIOj4vL6NHh_b1-8">
          <mxGeometry relative="1" as="geometry" />
        </mxCell>
        <mxCell id="d0ObZKYIOj4vL6NHh_b1-21" value="Bad weather, crew unavailability, etc." style="edgeLabel;html=1;align=center;verticalAlign=middle;resizable=0;points=[];" vertex="1" connectable="0" parent="d0ObZKYIOj4vL6NHh_b1-11">
          <mxGeometry x="-0.0586" y="-1" relative="1" as="geometry">
            <mxPoint x="40" y="29" as="offset" />
          </mxGeometry>
        </mxCell>
        <mxCell id="d0ObZKYIOj4vL6NHh_b1-14" style="edgeStyle=orthogonalEdgeStyle;rounded=0;orthogonalLoop=1;jettySize=auto;html=1;exitX=0;exitY=0.5;exitDx=0;exitDy=0;entryX=0.5;entryY=0;entryDx=0;entryDy=0;" edge="1" parent="1" source="d0ObZKYIOj4vL6NHh_b1-5" target="d0ObZKYIOj4vL6NHh_b1-9">
          <mxGeometry relative="1" as="geometry" />
        </mxCell>
        <mxCell id="d0ObZKYIOj4vL6NHh_b1-24" value="Bad weather, crew unavailability, etc." style="edgeLabel;html=1;align=center;verticalAlign=middle;resizable=0;points=[];" vertex="1" connectable="0" parent="d0ObZKYIOj4vL6NHh_b1-14">
          <mxGeometry x="0.1695" y="-3" relative="1" as="geometry">
            <mxPoint x="-5" y="41" as="offset" />
          </mxGeometry>
        </mxCell>
        <mxCell id="d0ObZKYIOj4vL6NHh_b1-5" value="Available for Booking" style="rounded=1;whiteSpace=wrap;html=1;" vertex="1" parent="1">
          <mxGeometry x="1567.5" y="1252" width="135" height="60" as="geometry" />
        </mxCell>
        <mxCell id="d0ObZKYIOj4vL6NHh_b1-17" style="edgeStyle=orthogonalEdgeStyle;rounded=0;orthogonalLoop=1;jettySize=auto;html=1;exitX=0.5;exitY=1;exitDx=0;exitDy=0;entryX=0.5;entryY=0;entryDx=0;entryDy=0;" edge="1" parent="1" source="d0ObZKYIOj4vL6NHh_b1-7" target="HPQqTix-k1KZv60HH8lt-3">
          <mxGeometry relative="1" as="geometry" />
        </mxCell>
        <mxCell id="d0ObZKYIOj4vL6NHh_b1-7" value="Completed" style="rounded=1;whiteSpace=wrap;html=1;" vertex="1" parent="1">
          <mxGeometry x="1575" y="1512" width="120" height="60" as="geometry" />
        </mxCell>
        <mxCell id="d0ObZKYIOj4vL6NHh_b1-12" style="edgeStyle=orthogonalEdgeStyle;rounded=0;orthogonalLoop=1;jettySize=auto;html=1;exitX=0.5;exitY=1;exitDx=0;exitDy=0;entryX=1;entryY=0.5;entryDx=0;entryDy=0;" edge="1" parent="1" source="d0ObZKYIOj4vL6NHh_b1-8" target="d0ObZKYIOj4vL6NHh_b1-7">
          <mxGeometry relative="1" as="geometry" />
        </mxCell>
        <mxCell id="d0ObZKYIOj4vL6NHh_b1-23" value="Flight occurs at newly-scheduled time" style="edgeLabel;html=1;align=center;verticalAlign=middle;resizable=0;points=[];" vertex="1" connectable="0" parent="d0ObZKYIOj4vL6NHh_b1-12">
          <mxGeometry x="-0.4182" y="-1" relative="1" as="geometry">
            <mxPoint as="offset" />
          </mxGeometry>
        </mxCell>
        <mxCell id="d0ObZKYIOj4vL6NHh_b1-8" value="Delayed" style="rounded=1;whiteSpace=wrap;html=1;" vertex="1" parent="1">
          <mxGeometry x="1800" y="1372" width="120" height="60" as="geometry" />
        </mxCell>
        <mxCell id="d0ObZKYIOj4vL6NHh_b1-25" style="edgeStyle=orthogonalEdgeStyle;rounded=0;orthogonalLoop=1;jettySize=auto;html=1;exitX=0.5;exitY=1;exitDx=0;exitDy=0;entryX=0;entryY=0.5;entryDx=0;entryDy=0;" edge="1" parent="1" source="d0ObZKYIOj4vL6NHh_b1-9" target="HPQqTix-k1KZv60HH8lt-3">
          <mxGeometry relative="1" as="geometry" />
        </mxCell>
        <mxCell id="d0ObZKYIOj4vL6NHh_b1-9" value="Cancelled" style="rounded=1;whiteSpace=wrap;html=1;" vertex="1" parent="1">
          <mxGeometry x="1340" y="1512" width="120" height="60" as="geometry" />
        </mxCell>
      </root>
    </mxGraphModel>
  </diagram>
</mxfile>
